<?xml version="1.0" encoding="utf-8"?>
<!-- Generator: Adobe Illustrator 18.1.0, SVG Export Plug-In . SVG Version: 6.00 Build 0)  -->
<!DOCTYPE svg PUBLIC "-//W3C//DTD SVG 1.1//EN" "http://www.w3.org/Graphics/SVG/1.1/DTD/svg11.dtd">
<svg version="1.1" id="Layer_1" xmlns="http://www.w3.org/2000/svg" xmlns:xlink="http://www.w3.org/1999/xlink" x="0px" y="0px"
	 viewBox="0 0 438 124" enable-background="new 0 0 438 124" xml:space="preserve">
<path fill="#3EA8B8" d="M60.8,81.4c-2.7,2.3-6.2,3.4-10.3,3.4c-5.5,0-9.7-2-12.6-6C35.3,75.2,34,70.6,34,65c0-5.8,1.3-10.4,4-13.9
	c2.9-4,7.2-6,12.7-6c6.9,0,11.4,2.8,13.6,8.3l-2,1.3c-0.6-1.9-1.8-3.5-3.5-4.9c-2.2-1.8-4.9-2.6-8.1-2.6c-4.9,0-8.6,1.8-11.1,5.5
	c-2.2,3.2-3.3,7.3-3.3,12.4c0,5.1,1.1,9.3,3.3,12.4c2.5,3.7,6.2,5.5,11.1,5.5c3,0,5.6-0.8,7.8-2.5c2.2-1.6,3.7-3.9,4.4-6.8l2,1.2
	C64.1,77.5,62.7,79.7,60.8,81.4z"/>
<path fill="#3EA8B8" d="M72.5,33.3h2.3v18.8c2.4-4.7,6.7-7,12.8-7c8.7,0,13,4.5,13,13.6v25.2h-2.3V59.4c0-4.1-0.7-7-2.2-8.9
	c-1.7-2.2-4.5-3.3-8.4-3.3c-7.2,0-11.4,3.2-12.5,9.7c-0.1,0.7-0.2,1.6-0.3,2.7c-0.1,1.1-0.1,2.4-0.1,3.8v20.4h-2.3V33.3z"/>
<path fill="#3EA8B8" d="M110.4,45.9h2.3v6.3c2-4.1,6.2-6.2,12.6-6.2l-1.5,2.1c-1.8,0-3.1,0.1-3.9,0.4c-1.7,0.5-3.4,1.7-5.1,3.7
	c-1.4,1.7-2.1,3.8-2.1,6.4v25.3h-2.3V45.9z"/>
<path fill="#3EA8B8" d="M131.2,51.1c2.9-4,7.2-6,12.7-6c5.6,0,9.8,2,12.8,6c2.6,3.5,4,8.2,4,13.9c0,5.8-1.3,10.4-4,14
	c-3,3.9-7.3,5.9-12.8,5.9c-5.6,0-9.8-2-12.7-5.9c-2.6-3.6-4-8.2-4-14C127.2,59.2,128.5,54.6,131.2,51.1z M132.9,77.4
	c2.5,3.7,6.2,5.5,11.1,5.5s8.5-1.8,11.1-5.5c2.2-3.1,3.3-7.3,3.3-12.4c0-5.1-1.1-9.2-3.3-12.4c-2.6-3.7-6.3-5.5-11.1-5.5
	c-4.9,0-8.6,1.8-11.1,5.5c-2.2,3.2-3.3,7.3-3.3,12.4C129.6,70.1,130.7,74.2,132.9,77.4z"/>
<path fill="#3EA8B8" d="M169.1,45.9h2.3v6.2c2.5-4.7,6.4-7,11.9-7c6.2,0,9.9,2.6,11.3,7.8c2.6-5.2,6.8-7.8,12.4-7.8
	c8,0,12,4.5,12,13.6v25.2h-2.3V61c0-4.2-0.4-7.2-1.1-8.9c-1.4-3.3-4.3-4.9-8.6-4.9c-4.5,0-7.7,1.7-9.6,5c-1.4,2.6-2.1,6.3-2.1,11.2
	v20.5h-2.3V61c0-4.2-0.4-7.2-1.1-8.9c-1.4-3.3-4.2-4.9-8.6-4.9c-6.5,0-10.3,3.2-11.4,9.7c-0.1,0.7-0.2,1.6-0.3,2.7
	c-0.1,1.1-0.1,2.4-0.1,3.8v20.5h-2.3V45.9z"/>
<path fill="#3EA8B8" d="M242.3,84.8c-5.4,0-9.5-2-12.4-6c-2.5-3.6-3.7-8.2-3.7-13.8c0-5.7,1.2-10.3,3.7-13.8c2.8-4.1,7-6.2,12.4-6.2
	c5.3,0,9.4,1.8,12.2,5.5c2.5,3.3,3.8,7.7,3.8,13.2v1.4h-29.7v0.6c0,4.7,1.1,8.6,3.3,11.7c2.5,3.6,6,5.4,10.4,5.4
	c6.2,0,10.3-2.9,12.5-8.6l1.9,1c-1,2.6-2.5,4.7-4.6,6.4C249.4,83.8,246.1,84.8,242.3,84.8z M255.8,63c0-4.4-1-8.1-3.1-11
	c-2.3-3.3-5.6-4.9-9.9-4.9c-4.4,0-7.8,1.6-10.3,4.8c-2.2,2.9-3.4,6.6-3.7,11.1H255.8z"/>
<g>
	<path fill="#3EA8B8" d="M343.5,65.8l-2.8,1.6c-1.3,0.8-3.5,2-4.8,2.8l-2.7,1.6c-1.3,0.8-2.4,0.1-2.4-1.4v-3.2c0-1.5,0-4.1,0-5.6
		v-3.2c0-1.5,1.1-2.2,2.4-1.4l2.7,1.6c1.3,0.8,3.5,2,4.8,2.8l2.8,1.6C344.8,63.8,344.8,65.1,343.5,65.8z"/>
</g>
<path fill="#3EA8B8" d="M388.7,84.3c-5.7,0-10.2-1.8-13.6-5.3c-3.4-3.6-5.1-8-5.1-13.4v-1.3c0-5.9,1.5-10.6,4.6-14.3
	c3.1-3.7,7.5-5.5,13.2-5.5c5.2,0,9.3,1.6,12.3,4.7c3,3.1,4.4,7.4,4.4,12.7v6.3h-22l-0.1,0.2c0.3,2,1.1,3.6,2.4,4.8
	c1.3,1.3,3.1,1.9,5.4,1.9c2.3,0,4.1-0.2,5.5-0.5c1.4-0.4,3.1-1,5.2-1.8l2.8,7.3c-1.7,1.2-3.9,2.3-6.5,3.1
	C394.6,83.9,391.7,84.3,388.7,84.3z M387.8,53.6c-1.7,0-3,0.6-3.9,1.8c-0.9,1.2-1.4,2.9-1.6,4.9l0.1,0.2h10.3v-0.9
	c0-1.9-0.4-3.4-1.2-4.5C390.8,54.1,389.5,53.6,387.8,53.6z"/>
<path fill="#3EA8B8" d="M332.9,83.5c-1.6-0.3-3.2-0.8-4.9-1.5c-5.3-2.3-8.8-5.7-10.3-10.3s-1.2-9.5,1.1-14.7l0.3-0.7
	c0.5-1.2,1.1-2.4,1.8-3.4c-0.5-1.9-1.3-3.5-2.3-4.7c-2.1-2.6-5.1-3.9-8.8-3.9c-2.5,0-4.7,0.6-6.5,1.7c-1.9,1.1-3.4,2.7-4.6,4.7
	c-0.9-2.1-2.2-3.7-3.9-4.8c-1.7-1-3.8-1.6-6.2-1.6c-2.4,0-4.5,0.5-6.3,1.5c-1.8,1-3.4,2.4-4.6,4.3l-0.4-5.1h-11.3v38.4h12V56
	c0.6-0.7,1.4-1.3,2.3-1.7c0.9-0.4,1.9-0.6,3-0.6c1.6,0,2.8,0.5,3.5,1.4c0.8,0.9,1.1,2.6,1.1,5.1v23.4h12V57.9c0-0.3,0-0.6,0-0.9
	c0-0.3,0-0.6,0-1c0.6-0.7,1.4-1.3,2.3-1.7c0.9-0.4,1.9-0.6,3.1-0.6c1.5,0,2.7,0.5,3.5,1.4c0.8,0.9,1.2,2.6,1.2,5.1v23.4H332.9z"/>
<path fill="#3EA8B8" d="M370.4,74.6c-0.7,0.1-1.3,0.2-1.7,0.3c-0.4,0-1,0.1-1.8,0.1c-0.9,0-1.7-0.3-2.3-0.9c-0.6-0.6-0.8-1.6-0.8-3
	V53.4h6.5v-8.3h-6.5v-9.6h-12v9.6h-10.4c0.7,0.2,1.4,0.5,2.1,0.8c5.3,2.3,8.8,5.7,10.3,10.3c1.5,4.6,1.2,9.5-1.1,14.7l-0.3,0.7
	c-0.2,0.4-0.4,0.8-0.6,1.2c0.2,3.7,1.2,6.5,3,8.4c2,2.1,5,3.2,9,3.2c1.4,0,2.7-0.1,3.8-0.2c1.1-0.1,2.3-0.3,3.6-0.7L370.4,74.6z"/>
</svg>
